<?xml version="1.0" encoding="UTF-8"?><svg id="TownOfMinto_LogoTag_Image" xmlns="http://www.w3.org/2000/svg" viewBox="0 0 409.64 432.68"><defs><style>.cls-1{fill:#fff;}.cls-2{fill:#0d5cab;}.cls-3{fill:#7ac043;}</style></defs><path class="cls-2" d="m215.64,0c.61.5,1.4.43,2.07.44,4.96.06,9.88.66,14.78,1.29,7.96,1.04,15.85,2.5,23.63,4.53,4.92,1.28,9.83,2.63,14.63,4.33,5.31,1.89,10.65,3.7,15.79,6.03,2.23,1.01,4.44,2.08,6.65,3.14,1.81.87,3.71,1.6,5.45,2.61,1.96,1.13,4.01,2.08,5.96,3.26,1.7,1.02,3.5,1.91,5.21,2.93,4.15,2.48,8.23,5.06,12.18,7.85,2.67,1.88,5.33,3.78,7.91,5.79,2.05,1.6,4.05,3.25,6.09,4.84,2.13,1.66,4.24,3.37,6.17,5.21,4.54,4.35,9.08,8.72,13.37,13.34,1.72,1.86,3.39,3.78,5.13,5.63,1.28,1.36,2.48,2.86,3.61,4.36,1.96,2.6,3.95,5.17,5.9,7.78,2.58,3.46,4.98,7.04,7.32,10.67,1.97,3.07,3.86,6.18,5.67,9.36,2.72,4.78,5.18,9.68,7.55,14.64.62,1.28,1.13,2.61,1.73,3.9.67,1.44,1.26,2.92,1.87,4.39.6,1.46,1.19,2.92,1.76,4.38.57,1.48,1.13,2.96,1.65,4.45.51,1.45.97,2.92,1.46,4.38.5,1.5,1.02,2.99,1.49,4.49.47,1.52.91,3.05,1.34,4.58.43,1.53.84,3.07,1.24,4.61.4,1.54.78,3.09,1.14,4.64,1.24,5.36,2.31,10.76,3.02,16.21.33,2.53.85,5.03,1,7.58.16,2.63.44,5.24.61,7.87.33,5.18.76,10.36.62,15.55-.25,9.05-.72,18.09-2.04,27.07-.53,3.63-1.08,7.26-1.79,10.85-1.8,9.14-4.22,18.13-7.26,26.94-2.11,6.1-4.49,12.09-7.15,17.96-2.62,5.79-5.61,11.39-8.65,16.96-.97,1.77-2.23,3.37-3.25,5.12-.52.9-1.09,1.76-1.62,2.63-.75,1.23-1.63,1.21-2.74.85-1.9-.62-3.79-1.27-5.7-1.85-.63-.19-.68-.35-.34-.9,1.8-2.92,3.21-6.06,4.69-9.14,1.7-3.52,3.22-7.13,4.69-10.75,1.95-4.8,3.68-9.7,5.19-14.66,1.02-3.33,1.97-6.68,2.89-10.04,1.38-5.01,2.53-10.06,3.56-15.14.91-4.44,1.68-8.9,2.3-13.39.68-4.9,1.1-9.81,1.48-14.74.54-6.92.79-13.84.57-20.78-.32-10.02-1.4-19.97-3.29-29.82-.84-4.38-1.85-8.72-3.03-13.02-1.27-4.59-2.5-9.21-4.19-13.66-1.86-4.93-3.58-9.92-5.9-14.67-1.34-2.75-2.52-5.57-3.93-8.29-1.85-3.57-3.75-7.12-5.79-10.59-1.91-3.25-4.12-6.31-6.12-9.5-2.11-3.37-4.61-6.44-6.89-9.67-1.16-1.63-2.36-3.27-3.63-4.77-1.31-1.55-2.75-3.05-4.08-4.59-3.78-4.4-8.15-8.23-12.04-12.53-1.24-1.37-2.76-2.48-4.13-3.72-2.83-2.55-5.71-5.05-8.73-7.38-2.87-2.21-5.76-4.38-8.76-6.42-2.42-1.64-4.72-3.48-7.34-4.82-1.69-.87-3.04-2.47-4.79-2.91-1.83-.46-2.8-2.31-4.71-2.36-2.55-2.57-6.07-3.46-9.12-5.16-1.79-1-3.68-1.81-5.7-2.42-1.25-.38-2.57-1.33-3.9-1.91-1.72-.75-3.36-1.79-5.23-2.08-1.07-.16-1.74-1.03-2.67-1.19-2.47-.43-4.68-1.59-7.04-2.29-2.95-.87-5.91-1.71-8.89-2.5-2.61-.69-5.27-1.29-7.85-2.16-.79-.27-1.76-.37-2.68-.42-1.47-.08-2.84-.82-4.36-.79-.89.02-1.84.09-2.65-.19-1.22-.42-2.52-.42-3.72-.84-.19-.06-.37-.25-.54-.23-2.11.27-4.09-.83-6.22-.54-.87.12-1.66-.45-2.56-.53-3.07-.27-6.17-.25-9.22-.84-.53-.1-1.05.21-1.62.19-2.23-.1-4.47-.17-6.7-.16-2.99.01-5.99.03-8.98.18-12.64.62-25.12,2.38-37.39,5.5-7.14,1.81-14.15,4.02-21.03,6.65-11.6,4.42-22.64,9.95-33.15,16.57-9.62,6.05-18.59,12.94-26.99,20.57-8.12,7.37-15.44,15.48-22.15,24.15-2.67,3.45-5.13,7.05-7.64,10.62-1.49,2.12-2.77,4.37-4.15,6.55-3.74,5.91-6.87,12.16-9.91,18.45-.55,1.13-.87,2.51-1.46,3.54-.92,1.58-1.37,3.32-2.19,4.92-1.63,3.16-2.64,6.6-3.75,9.98-.68,2.07-1.35,4.15-1.88,6.29-.41,1.62-1.21,3.23-1.59,4.88-.67,2.89-1.41,5.76-1.98,8.68-.43,2.19-.92,4.4-1.46,6.59-.3,1.21-.91,2.49-.73,3.63.27,1.65-.45,3.09-.49,4.66-.03,1.32-.49,2.76-.63,4.17-.29,3.02-.85,6.01-.9,9.05-.02,1.43-.13,2.86-.48,4.29-.13.52,0,1.35,0,2.04.03,4.47-.12,8.95.05,13.41.18,4.53.64,9.06,1.04,13.58.21,2.38.49,4.76.84,7.13.17,1.18.58,2.4.62,3.54.09,2.47.65,4.83,1.04,7.23,1.01,6.2,2.42,12.32,3.97,18.41,1.12,4.39,2.46,8.72,3.8,13.05,1.72,5.55,3.89,10.94,6.03,16.33,1.83,4.59,4,9.02,6.24,13.42.14.27.37.53.3.99-2.04.17-4.03.84-6.14.82-.64,0-1.31.43-2.01.57-.58.12-.96.03-1.27-.54-1.81-3.26-3.82-6.4-5.58-9.69-2.02-3.78-3.78-7.69-5.82-11.45-.77-1.43-1.08-2.96-1.75-4.39-1.9-4.08-3.36-8.34-4.95-12.55-1.4-3.71-2.36-7.55-3.6-11.3-1.86-5.64-2.87-11.47-4.07-17.25-1.26-6.07-2.08-12.22-2.68-18.4-.26-2.73-.51-5.46-.7-8.19-.51-7.38-.27-14.76-.19-22.14.03-3.1.37-6.2.7-9.29.75-7.16,1.72-14.29,3.13-21.35,1.18-5.9,2.71-11.71,4.37-17.5,1.44-5.04,3.21-9.97,5.1-14.86,1.41-3.65,2.97-7.24,4.5-10.84,1.53-3.6,3.54-6.95,5.17-10.48.74-1.61,1.49-3.26,2.35-4.79.89-1.59,1.94-3.15,2.86-4.74,2.45-4.19,5.16-8.21,7.8-12.27.81-1.26,1.76-2.43,2.66-3.63,2.39-3.16,4.77-6.32,7.21-9.44,1.17-1.5,2.47-2.89,3.7-4.34,3.92-4.63,8.15-8.95,12.48-13.18,1.61-1.58,3.16-3.27,4.86-4.7,2.54-2.14,4.98-4.4,7.62-6.44,1.94-1.5,3.84-3.07,5.81-4.54,4.61-3.44,9.34-6.7,14.15-9.86,3.26-2.14,6.71-3.95,10.09-5.88,3.37-1.93,6.75-3.84,10.27-5.48,7.27-3.39,14.65-6.53,22.25-9.12,11.59-3.95,23.42-6.91,35.53-8.73,6-.9,12.02-1.54,18.07-1.96,1-.07,2.11.19,3.07-.4h19.19Z"/><path class="cls-2" d="m168.15,113.02c-.11,5.97-.39,11.83-1.28,17.64-.12.77.31,1.87-.74,2.41.66,1.34-.13,2.58-.35,3.83-.66,3.71-1.71,7.33-3.02,10.87-2.43,6.62-5.7,12.77-10.3,18.14-5.01,5.84-10.96,10.25-18.63,12.02-4.98,1.15-9.84.57-14.5-1.14-3.98-1.46-7.47-3.9-10.63-6.78-3.64-3.32-6.53-7.23-9.11-11.4-2.12-3.43-3.74-7.07-5.14-10.84-1.46-3.91-2.24-7.98-3.3-11.98-.87-3.28-.76-6.64-1.24-9.95-.73-5.04-.69-10.09-.69-15.15,0-2.77.48-5.48,1.06-8.17,1.45-6.7,4.71-12.48,9.06-17.71,2.51-3.01,5.44-5.55,8.66-7.72,5.25-3.54,11.07-5.57,17.39-6.08,11.76-.95,21.68,3.09,30.05,11.22,5.86,5.69,9.61,12.58,11.56,20.49.84,3.42,1.11,6.89,1.15,10.3Z"/><path class="cls-2" d="m101.63,338.96c-.77,1.8-1.56,3.6-2.32,5.41-1.69,4.04-3.48,8.04-4.98,12.15-.58,1.6-1.16,3.25-1.87,4.74-1.26,2.67-2.31,5.43-3.49,8.13-1.48,3.39-2.97,6.78-4.27,10.24-1.52,4.06-3.47,7.93-4.94,12-.61,1.68-1.23,3.39-1.96,4.97-1.21,2.63-2.32,5.3-3.44,7.96-.61,1.44-1.19,2.92-1.73,4.4-.93,2.56-2.15,5.02-3.25,7.51-.06.14-.23.23-.27.37-.86,3.57-3.02,6.62-4.06,10.12-.21.7-.58,1.35-.88,2.02-.32.71-.59,1.41-1.65,1.27-.99-.12-1.95.19-2.44-1.24-.47-1.38-1.23-2.7-1.9-4.02-.3-.59-.22-1.46-.58-2.14-1.35-2.54-2.21-5.29-3.39-7.9-2.09-4.64-3.92-9.4-6.05-14.03-.68-1.47-1.43-2.9-1.93-4.48-1.18-3.73-2.98-7.23-4.44-10.87-1.17-2.93-2.4-5.87-3.8-8.72-.62-1.25-1.1-2.57-1.74-3.81-.52-1.01-1.08-2.04-1.44-3.07-.29-.85-.68-1.69-1.01-2.5-.69-1.69-1.12-3.47-1.93-5.12-.76-1.54-1.46-3.13-2.2-4.67-.66-1.37-1.52-2.82-1.86-4.17-.6-2.33-1.7-4.4-2.66-6.52-.65-1.43-.94-3.02-1.81-4.48-.42.53-.26,1.02-.26,1.45,0,20.28.02,40.55-.04,60.83,0,2.59.16,5.18.34,7.74.15,2.23.66,4.49,1.42,6.66,1.22,3.48,3.85,5.1,7.27,5.75,1.45.27,2.9.55,4.36.74.78.1,1.12.4,1.11,1.21-.08,4.02.52,3.29-3.12,3.3-10.95.04-21.9.01-32.86.01-1.54,0-1.55-.02-1.56-1.53-.01-2.82,0-2.79,2.75-3.22,2.88-.45,5.67-1.08,8.17-2.77,1.72-1.16,2.32-2.84,2.75-4.65.28-1.17.06-2.48.38-3.57,1.33-4.57.7-9.21.82-13.82.11-4.68.03-9.36.03-14.04,0-16.88,0-33.76,0-50.63,0-1.88-.17-3.75-.51-5.59-.64-3.44-2.5-5.75-6.09-6.5-2.23-.46-4.46-.85-6.74-.91-.95-.02-1.43-.33-1.33-1.34.04-.44.04-.88,0-1.32-.12-1.2.19-1.75,1.59-2.02,1.9-.36,3.83-.45,5.72-.81,1.99-.38,4.02-.58,6.04-.83,2.02-.25,4.04-.51,6.06-.67,3.32-.26,6.64-.66,9.99-.26,1.4.17,2.34.7,2.97,1.96,2.09,4.21,3.84,8.56,5.64,12.89,2.58,6.18,5.08,12.39,7.62,18.58,5.42,13.2,10.77,26.43,16.57,39.48,1.16,2.61,2.43,5.16,3.76,7.67.4.75.61.64.99-.01,2.06-3.51,3.6-7.26,5.19-10.98,2.8-6.55,5.42-13.18,8.07-19.79,1.1-2.75,2.31-5.47,3.36-8.25,3.36-8.87,7.08-17.6,10.57-26.43,1.74-4.41,3.54-8.79,5.54-13.09.65-1.4,1.63-1.89,3.01-2,3.77-.29,7.54-.07,11.28.33,1.95.21,3.95,0,5.87.75.6.24,1.45-.06,2.25.09,2.37.45,4.79.65,7.18,1,.89.13,1.76.39,2.64.62.17.05.42.19.45.33.25,1.26.21,2.54.01,3.8-.01.09-.24.22-.37.22-1.79-.04-3.5.49-5.23.78-1.89.32-3.84.75-5.37,2.05-1.13.95-1.47,2.36-1.78,3.76-.81,3.65-.66,7.35-.66,11.05,0,23.64.01,47.27-.02,70.91,0,2.04-.07,4.13.21,6.1.22,1.49.57,3.19,1.63,4.52.88,1.1,2.04,1.74,3.34,2.2,2.31.81,4.7,1.23,7.13,1.41.91.07,1.28.37,1.27,1.29-.02,3.65.25,3.24-3.18,3.24-13.35,0-26.7,0-40.05.04-1.05,0-1.52-.2-1.48-1.38.13-3.61-.59-2.75,2.98-3.36,1.98-.34,3.95-.73,5.84-1.32,2.04-.63,3.51-1.99,3.98-4.25.76-3.68,1.14-7.38,1.13-11.15-.05-22.84-.02-45.67-.02-68.51,0-.43,0-.86,0-1.29-.11-.03-.21-.05-.32-.08Z"/><path class="cls-2" d="m293.24,184.05c-3.78.01-7.19-.75-10.4-2.4-3.27-1.68-6.24-3.82-8.86-6.37-2.39-2.33-4.24-5.12-6.07-7.92-2.26-3.45-3.64-7.27-5.15-11.05-.99-2.47-1.4-5.11-2.24-7.61-.94-2.8-.96-5.73-1.52-8.58-.58-2.94-.71-5.93-.94-8.92-.37-4.79-.26-9.54.72-14.26.79-3.78,2.17-7.34,4.05-10.65,1.26-2.22,2.84-4.29,4.54-6.25,1.47-1.69,2.87-3.51,4.72-4.73,1.85-1.23,3.67-2.56,5.66-3.59,3.08-1.6,6.37-2.6,9.79-3.25,1.96-.37,3.89-.32,5.85-.35,1.57-.02,3.11.37,4.64.19,1.44-.17,2.64,1.12,4.09.53.65.82,1.66.93,2.55,1.31,1.6.68,3.12,1.51,4.66,2.33,4.25,2.27,7.76,5.36,10.67,9.1,3.64,4.68,6.27,9.88,7.44,15.77.39,1.99.54,3.95.65,5.96.49,9.38-.71,18.56-3.11,27.59-1.5,5.67-3.59,11.11-6.61,16.19-2.37,3.99-5.27,7.48-8.81,10.45-4.77,4.01-10.2,6.34-16.32,6.5Z"/><path class="cls-2" d="m244.52,208.49c-.11,4.5-.31,8.07-.74,11.64-.45,3.71-1.23,7.32-2.19,10.92-.37,1.39-.64,2.69-1.6,3.86-.21.26-.16,1.31-.43,1.92-3.7,8.31-8.63,15.57-17.25,19.54-3.96,1.82-8.08,2.19-12.35,1.3-3.68-.77-6.93-2.54-9.73-4.86-2.61-2.16-4.97-4.66-6.83-7.61-1.41-2.23-2.8-4.48-4.02-6.8-.55-1.05-.82-2.39-1.26-3.58-2.48-6.69-3.42-13.66-3.96-20.72-.42-5.53-.27-11,1.33-16.32.87-2.89,2.32-5.58,3.99-8.14,3.52-5.43,8.23-9.37,14.16-11.88,1.62-.69,3.3-1.64,4.92-1.8,3.33-.32,6.73-.64,10.1-.02,4.9.91,9.32,2.87,13.23,5.96,2.68,2.11,4.85,4.67,6.89,7.4,1.78,2.38,2.8,5.06,3.88,7.74,1.59,3.96,1.91,8.14,1.85,11.46Z"/><path class="cls-3" d="m75.59,252.21c0,17.36,0,34.71.02,52.07,0,1.04-.19,1.42-1.35,1.42-3.38,0-6.77.12-10.15.3-3.16.17-6.32.45-9.47.71-.73.06-1.03-.15-.96-.91.06-.63.01-1.28.01-1.92,0-33.28.08-66.55-.06-99.82-.03-7.68,1.09-15.04,3.85-22.16,1.9-4.88,4.55-9.37,7.79-13.5,5.07-6.46,11.35-11.45,18.66-15.15.43-.22.87-.39,1.31-.58,1.57-.69,1.55-.68,2.24.95,2.26,5.34,4.99,10.41,8.39,15.11.43.6.88,1.19,1.4,1.71.61.62.3.77-.32,1.01-3.25,1.24-6.33,2.78-9.03,5.01-1.56,1.29-2.91,2.75-4.3,4.21-3.09,3.27-5.1,7.07-6.5,11.24-1,3-1.54,6.1-1.54,9.29.01,17,0,33.99,0,50.99Z"/><path class="cls-3" d="m339.37,254.01c0-16.67-.01-33.35,0-50.02,0-6.64-1.85-12.65-5.97-17.88-2.77-3.53-6.19-6.3-10.31-8.13-.98-.44-1.16-.78-.46-1.67,3.47-4.42,5.99-9.39,8.15-14.55.39-.94.77-.91,1.5-.54,4.68,2.34,8.9,5.37,12.53,9.11,7.92,8.15,12.44,17.92,13.5,29.26.15,1.66.18,3.34.18,5.01,0,34.35,0,68.7.03,103.04,0,1.09-.16,1.34-1.33,1.12-5.21-.99-10.44-1.92-15.76-2.08-.51-.02-1.01-.17-1.52-.22-.4-.04-.56-.25-.55-.63,0-.32,0-.64,0-.96,0-16.95,0-33.91,0-50.86Z"/><path class="cls-2" d="m224.12,368.08c4.02-3.29,7.51-6.82,12.04-8.91,3.11-1.44,6.32-2.36,9.85-2.37,8.54-.03,14.12,5.35,16.4,11.76,1.34,3.77,1.93,7.63,1.94,11.6,0,12.2,0,24.4,0,36.59,0,1.32.13,2.63.39,3.92.7,3.47,2.49,5.22,5.96,5.75.71.11,1.43.23,2.14.21.87-.02,1.08.39,1.09,1.17.05,2.45.07,2.45-2.38,2.45-9.87,0-19.74,0-29.62,0-.65,0-1.48.31-1.58-.88-.18-2.19-.05-2.64,1.34-2.84,1.18-.17,2.32-.5,3.44-.88,2.41-.83,3.91-2.41,4.45-5.03.5-2.4.61-4.8.61-7.22,0-11.16,0-22.32-.03-33.47-.01-3.31-.66-6.5-2.27-9.42-1.36-2.45-3.56-3.56-6.3-3.84-5.35-.54-9.45,1.84-13.39,5.15-2.46,2.07-3.36,4.19-3.31,7.41.2,13.35.09,26.71.12,40.07,0,.79.11,1.6.3,2.37.73,2.99,2.61,4.36,6.46,4.77.52.06,1.04.06,1.54.17.55.12,1.35-.25,1.61.47.3.82.23,1.75.04,2.6-.13.56-.74.6-1.3.59-3.4-.02-6.79,0-10.19,0-7.03,0-14.07,0-21.1,0q-1.61,0-1.61-1.56c0-1.96.35-2.36,2.33-2.48.81-.05,1.56-.25,2.33-.47,2.68-.77,4.11-2.57,4.48-5.3.16-1.19.27-2.38.27-3.58,0-14,0-28,0-41.99,0-1.08-.09-2.15-.27-3.22-.43-2.53-2-3.95-4.58-4.02-1.23-.04-2.47-.09-3.69.21-.79.2-1.32-.16-1.31-1.07,0-.2,0-.4,0-.6,0-2.28.1-2.3,2.35-2.88,1.8-.46,3.55-1.13,5.33-1.71,1.61-.53,3.22-1.08,4.84-1.59,3.15-.98,6.3-1.93,9.45-2.9.89-.27,1.63.23,1.78,1.34.11.83.09,1.67.09,2.51.01,2.3,0,4.61,0,7.12Z"/><path class="cls-2" d="m374.94,432.66c-4.35.02-8.28-.73-12.13-1.91-4.23-1.3-7.63-3.96-10.89-6.83-3.54-3.12-6.25-6.88-8.42-11.05-2.38-4.57-3.43-9.49-3.9-14.57-.58-6.24.2-12.29,2.04-18.29.57-1.87,1.67-3.38,2.37-5.13.7-1.76,2.05-3.19,3.11-4.77,1.61-2.4,3.62-4.57,5.8-6.24,2.59-1.98,5.45-3.87,8.73-4.8.49-.14,1-.26,1.29-.76.05-.09.2-.22.25-.2,1.61.68,2.95-.61,4.49-.62,1.52-.01,3.03-.35,4.55-.46,3.13-.23,6.25.11,9.32.63,2.11.35,4.18,1,6.21,1.69,2.75.93,5.2,2.51,7.51,4.22,7.6,5.64,11.89,13.29,13.45,22.56,1.39,8.3.77,16.43-2.46,24.22-2.94,7.12-7.42,13.05-13.98,17.32-4.38,2.86-9.15,4.34-14.3,4.79-1.11.1-2.22.28-3.03.19Zm-20.23-44.16c-.05,9.49,1.51,17.12,4.79,24.39,1.94,4.3,4.32,8.28,8.24,11.1,6.23,4.49,15.01,3.78,19.69-1.63,2.91-3.37,4.48-7.4,5.45-11.68,1.6-7.09,1.61-14.24.41-21.38-1.11-6.61-3.21-12.91-6.91-18.55-4.68-7.11-11.03-8.94-17.7-7.66-5.28,1.02-8.61,4.62-10.8,9.31-2.59,5.57-3.15,11.56-3.16,16.09Z"/><path class="cls-2" d="m290.73,390.89c0-9.37-.02-17.04.02-24.72,0-1-.16-1.41-1.28-1.35-1.87.11-3.76,0-5.63.04-1.02.02-1.71-.36-1.95-1.37-.24-1.04.01-1.81,1.08-2.35,3.65-1.83,7.1-4,10.2-6.66,3.34-2.87,5.58-6.52,7.14-10.61.63-1.65,1.39-3.25,1.82-4.97.22-.87.86-.79,1.49-.78.68,0,1.3.16,1.45.94.09.47.1.95.1,1.43,0,5.56.02,11.12-.02,16.67,0,.9.24,1.14,1.14,1.13,4.04-.05,8.07-.02,12.11-.02,1.68,0,1.79.11,1.79,1.72,0,1.16-.05,2.32.02,3.48.06,1.05-.36,1.4-1.39,1.39-4.32-.04-8.63,0-12.95-.03-.76,0-1.02.19-1.02,1.01.02,15.11,0,30.23,0,45.34,0,1.67.19,3.34.67,4.95.17.59.17,1.27.97,1.45.41.09.23.45.21.7-.08.9.38,1.46,1.07,1.96,1.51,1.1,3.12,1.39,5.02,1.34,3.35-.09,5.31-2.17,7.35-4.31.45-.47.92-1.27,1.66-.86.92.51,1.81,1.16,2.4,2.07.17.26-.07.54-.23.76-2.15,3.12-4.44,6.13-7.53,8.39-4.3,3.14-9.16,4.53-14.4,3.74-3.76-.57-6.62-2.83-8.51-6.2-1.72-3.06-2.39-6.41-2.6-9.85-.53-8.71-.06-17.42-.23-24.45Z"/><path class="cls-3" d="m253.96,299.09c0-7.28.1-14.56-.03-21.83-.08-4.72-1.5-9.12-4.34-12.95-2.8-3.78-6.21-6.84-10.69-8.49-1.22-.45-.46-1.01-.15-1.32,2.38-2.35,4.03-5.21,5.68-8.06.8-1.38,1.54-2.79,2.19-4.24.28-.62.5-.65,1.04-.38,4.23,2.14,8,4.9,11.32,8.29,4.13,4.21,7.05,9.18,9.04,14.69,1.21,3.35,1.96,6.79,2.09,10.4.54,16.02.06,32.04.24,48.06,0,.77-.16,1.07-1,.96-4.75-.63-9.49-1.24-14.25-1.8-.97-.11-1.13-.52-1.12-1.38.03-7.32.02-14.64.02-21.96h-.03Z"/><path class="cls-3" d="m158.3,296.11c0-6.84-.07-13.67.03-20.51.05-3.41.6-6.83,1.78-10.02,1.25-3.41,2.77-6.74,4.83-9.8,1.92-2.85,4.19-5.35,6.68-7.69,2.71-2.55,5.84-4.43,9.08-6.17.68-.37.97-.29,1.32.45,1.68,3.56,3.58,7,6.01,10.1.65.82,1.34,1.61,2.02,2.41.37.43.58.57-.22.93-2.24,1.02-4.56,1.9-6.37,3.76-.78.8-1.8,1.42-2.57,2.27-2.02,2.24-3.67,4.74-4.71,7.59-1.12,3.04-1.6,6.16-1.58,9.43.08,12.39.02,24.79.06,37.18,0,1.12-.24,1.5-1.43,1.49-2.91-.02-5.84,0-8.73.26-1.83.16-3.66.04-5.47.23-.68.07-.77-.09-.76-.68.03-2,0-4,0-6,0-5.08,0-10.16,0-15.23h.03Z"/><path class="cls-2" d="m168.12,430.25c-5.76,0-11.51,0-17.27,0-1.6,0-1.65-.05-1.65-1.59,0-2.01,0-2.01,2-2.2,2.5-.23,4.93-.73,7.24-1.72,1.06-.46,1.69-1.31,2.02-2.38.71-2.27.93-4.62.94-6.97.02-13.6.01-27.2,0-40.79,0-.99-.1-2-.26-2.98-.53-3.27-2.74-4.65-6.13-3.84-1.27.3-2.53.7-3.8,1.02-1.23.31-1.49.1-1.5-1.15-.03-2.23.07-2.36,2.79-3.09,4.09-1.09,8.04-2.6,12.04-3.97,2.31-.79,4.52-1.82,6.81-2.61.98-.33,1.91-1.1,3.11-.92.82.12,1.55.83,1.3,1.62-.16.48-.14.94-.14,1.4,0,18.32-.01,36.64,0,54.95,0,2.03.27,4.05.62,6.06.46,2.69,2.1,4.04,4.6,4.65,1.78.44,3.59.66,5.4.91.61.08.85.34.84.92,0,.04,0,.08,0,.12.13,2.5.08,2.55-2.4,2.55-5.52,0-11.03,0-16.55,0Z"/><path class="cls-3" d="m179.05,189.07c-1.3-2.79-2.77-5.36-4.7-7.66-3.78-4.53-8.38-7.89-13.94-9.87-.9-.32-.85-.6-.33-1.25,4.02-5,7.1-10.56,9.57-16.47.08-.18.19-.36.23-.55.29-1.16.91-1.22,1.91-.74,4.36,2.1,8.42,4.62,12.16,7.72,3.83,3.16,7.05,6.81,9.97,10.79.61.83.69,1.22-.32,1.86-6.21,3.9-10.95,9.16-14.26,15.71-.07.14-.17.26-.31.48Z"/><path class="cls-3" d="m250.05,190.25c-1.3-1.9-1.99-4-3.26-5.79-2.48-3.5-5.45-6.54-8.73-9.27-.7-.58-.48-.67-.04-1.18,1.84-2.14,3.69-4.29,5.82-6.14,1.92-1.67,3.98-3.18,6.17-4.5,1.32-.8,2.72-1.48,4.05-2.27.68-.4.96-.3,1.27.47,2.17,5.42,4.94,10.52,8.52,15.15.5.64.3.79-.29,1.04-3.55,1.49-6.59,3.71-9.21,6.5-1.66,1.77-3.08,3.73-4.29,5.97Z"/><path class="cls-2" d="m241.84,342.54c1.18-2.65,2.24-4.95,3.24-7.28.43-1,.05-1.56-1.53-2.01-1.1-.31-1.21-.76-.69-1.67.23-.41.51-.44.87-.44,2.52,0,5.04.03,7.55-.02.71-.01.89.39.99.9.1.53.05.95-.62,1.2-1.72.65-1.71.7-.99,2.34.8,1.82,1.59,3.64,2.41,5.46.13.29.17.75.68.71.4-.03.48-.36.61-.65.85-1.91,1.99-3.67,2.74-5.63.45-1.19.07-1.76-1.01-2.13-.41-.14-.91-.18-.88-.89.04-.84.24-1.33,1.22-1.31,1.72.05,3.44.01,5.15.01.48,0,1.02-.06,1.04.66.01.56.32,1.24-.52,1.51-1.17.38-1.7,1.34-2.2,2.35-1.87,3.74-3.79,7.46-5.61,11.22-.42.88-.94,1.32-1.88,1.31-.97-.02-1.35-.67-1.68-1.44-1.3-3.02-2.62-6.03-4.07-9.35-.91,2.03-1.71,3.81-2.51,5.59-.62,1.38-1.26,2.74-1.88,4.12-.32.71-.77,1.09-1.63,1.11-.86.01-1.24-.36-1.59-1.06-2.04-4.04-4.27-7.99-6.15-12.12-.36-.8-.75-1.51-1.88-1.57-.86-.05-.42-.95-.5-1.48-.09-.55.24-.82.76-.83,2.44,0,4.87,0,7.31,0,.83,0,.75.71.93,1.18.21.56-.25.77-.66.95-1.31.57-1.38.69-.73,1.97,1.18,2.35,2.38,4.69,3.71,7.3Z"/><path class="cls-2" d="m167.32,354.66c-4,.7-8.56-4.41-8.41-8.7.18-4.98,4.14-8.33,6.74-8.72,2.9-.44,5.53.24,7.63,2.38,1.74,1.77,2.54,3.92,2.59,6.45.08,4.14-3.75,9.02-8.56,8.58Z"/><path class="cls-2" d="m196.29,322.31c3.55,0,7.11.01,10.66,0,1.01,0,1.68.18,1.51,1.45-.13.99.04,2,.03,3,0,.71-.3.93-.81,1.02-.5.09-1.04.14-1.19-.61-.26-1.33-1.22-1.69-2.43-1.68-1.36.01-2.72.03-4.07,0-.64-.02-.92.13-.91.85.03,5.83,0,11.67.03,17.5,0,1.46.46,1.9,1.89,1.96.85.03,1.21.43,1.22,1.26,0,.91-.6.88-1.23.88-3.03,0-6.07,0-9.1,0-.56,0-1.13.06-1.2-.79-.06-.8.32-1.01,1.02-1.13,1.81-.29,2.11-.68,2.11-2.53,0-5.63-.02-11.27.02-16.9,0-.93-.28-1.18-1.15-1.11-.83.07-1.68.02-2.51.02-1.37,0-2.72-.17-3.43,1.53-.41.99-1.52.86-2.44.74-.51-.07-.52-.53-.53-.93,0-.88-.04-1.76,0-2.64.1-1.78.19-1.87,1.97-1.88,3.51-.02,7.03,0,10.54,0Z"/><path class="cls-2" d="m272.95,334.14c1.28-1.18,2.45-2.32,4.19-2.78,3.42-.91,6.26.85,6.85,4.34.37,2.19.14,4.39.21,6.58.02.64.05,1.28,0,1.92-.11,1.14.39,1.76,1.51,1.83.82.05.96.5.93,1.2-.03.81-.58.72-1.1.72-2.52,0-5.03,0-7.55,0-.42,0-.92.09-.93-.6,0-.58-.01-1.08.73-1.29,1.76-.49,1.81-.58,1.78-2.39-.04-2.07.15-4.16-.12-6.22-.21-1.59-.99-2.55-2.33-2.83-1.57-.32-2.9.23-4.02,1.32-.3.3-.29.73-.29,1.13,0,2.32.01,4.64,0,6.96,0,1.14.33,1.96,1.63,2.01.74.03.92.44.91,1.11,0,.77-.49.8-1.04.8-2.52,0-5.03,0-7.55,0-.52,0-.96-.03-.99-.72-.02-.62.04-1.15.81-1.18,1.36-.06,1.68-.83,1.63-2.08-.08-2.4-.08-4.8,0-7.2.03-.99-.35-1.39-1.25-1.47-.48-.05-.98,0-.95-.75.03-.63-.07-1.19.77-1.47,1.67-.55,3.29-1.25,4.94-1.85.37-.14.81-.54,1.2-.08.34.41.49.96.26,1.46-.22.49-.28.97-.24,1.53Z"/><path class="cls-2" d="m324.01,331.14c5.18,0,8.49,2.22,9.43,6.31,1.19,5.2-1.51,9.8-7.17,10.55-2.72.37-5.26.04-7.64-1.47-2.82-1.79-3.81-5.64-3.3-8.4.45-2.43,1.65-4.26,3.68-5.64,1.66-1.12,3.54-1.22,4.99-1.35Zm4.6,8.54c.11-1.48-.08-2.93-.81-4.27-.69-1.27-1.73-2.06-3.24-2.08-1.55-.02-2.71.68-3.38,2.05-1.36,2.81-1.35,5.66,0,8.47.66,1.38,1.83,2.11,3.36,2.09,1.59-.02,2.69-.88,3.35-2.29.59-1.25.82-2.57.71-3.97Z"/><path class="cls-2" d="m218.56,348.19c-3.19-.09-5.82-.84-7.75-3.12-.9-1.06-1.4-2.39-1.61-3.78-.85-5.73,2.71-9.95,8.53-10.14,2.85-.09,5.49.48,7.53,2.6,2.44,2.54,2.79,5.61,1.78,8.84-.99,3.17-3.36,4.79-6.53,5.35-.74.13-1.5.19-1.95.24Zm3.76-8.49c.18-1.47.06-2.92-.67-4.27-.72-1.33-1.8-2.1-3.35-2.1-1.57,0-2.71.77-3.33,2.13-1.26,2.77-1.28,5.6.03,8.37.65,1.37,1.8,2.13,3.34,2.12,1.59-.01,2.67-.87,3.38-2.26.64-1.25.78-2.58.62-3.98Z"/><path class="cls-2" d="m343.47,347.94c-1.56,0-3.12.01-4.67,0-.35,0-.87.14-.81-.53.04-.53-.17-1.11.62-1.35,1.9-.57,1.89-.6,1.9-2.61,0-2.56-.01-5.12,0-7.67,0-.86-.21-1.39-1.22-1.28-.3.03-.77.15-.82-.42-.04-.49-.09-1.07.45-1.25,1.58-.52,1.56-1.82,1.59-3.1.06-2.09.37-4.07,1.62-5.85,1.7-2.4,5.19-3.48,7.82-2.56.69.24,1.31.61,1.74,1.21.57.8.67,1.69-.06,2.39-.68.66-1.58.71-2.39.15-.49-.34-.92-.76-1.38-1.14-1.19-1-2.54-.58-2.65.95-.15,2.17-.33,4.35.13,6.53.13.61.36.64.84.64,1.12-.02,2.24.02,3.36-.02.69-.02.97.25.87.91-.09.6.26,1.46-.88,1.44-1.12-.02-2.24.05-3.35-.02-.81-.05-1.11.17-1.09,1.04.06,2.84.01,5.68.02,8.51,0,1.37.32,1.7,1.72,1.92.43.07.86.16,1.3.19.67.04.87.4.87,1.02,0,.72-.42.88-1,.88-1.52,0-3.04,0-4.55,0Z"/><path class="cls-1" d="m354.72,388.5c.01-4.54.57-10.52,3.16-16.09,2.18-4.69,5.51-8.3,10.8-9.31,6.67-1.28,13.02.55,17.7,7.66,3.71,5.63,5.8,11.94,6.91,18.55,1.2,7.13,1.19,14.29-.41,21.38-.96,4.28-2.54,8.31-5.45,11.68-4.68,5.41-13.45,6.12-19.69,1.63-3.92-2.82-6.3-6.8-8.24-11.1-3.28-7.27-4.84-14.9-4.79-24.39Z"/><path class="cls-1" d="m328.61,339.68c.11,1.4-.12,2.72-.71,3.97-.67,1.41-1.77,2.27-3.35,2.29-1.53.02-2.69-.71-3.36-2.09-1.35-2.81-1.36-5.66,0-8.47.66-1.37,1.83-2.07,3.38-2.05,1.51.02,2.54.81,3.24,2.08.73,1.33.92,2.78.81,4.27Z"/><path class="cls-1" d="m222.32,339.7c.16,1.4.02,2.73-.62,3.98-.71,1.39-1.79,2.25-3.38,2.26-1.53.01-2.69-.75-3.34-2.12-1.3-2.77-1.29-5.6-.03-8.37.62-1.36,1.76-2.13,3.33-2.13,1.56,0,2.63.77,3.35,2.1.74,1.35.85,2.8.67,4.27Z"/></svg>